<svg width="32" height="32" viewBox="0 0 32 32" fill="none" xmlns="http://www.w3.org/2000/svg">
  <defs>
    <linearGradient id="grad" x1="0" y1="0" x2="32" y2="32" gradientUnits="userSpaceOnUse">
      <stop offset="0%" stop-color="#8b5cf6" />
      <stop offset="100%" stop-color="#db2777" />
    </linearGradient>
  </defs>
  <rect width="32" height="32" rx="8" fill="url(#grad)" />
  <g transform="translate(4, 4)">
     <path d="M6 4C6 2.89543 6.89543 2 8 2H10C11.1046 2 12 2.89543 12 4V20C12 21.1046 11.1046 22 10 22H8C6.89543 22 6 21.1046 6 20V4Z" fill="white"/>
     <path d="M12 4H18C19.1046 4 20 4.89543 20 6V8C20 9.10457 19.1046 10 18 10H12V4Z" fill="white"/>
     <path d="M12 12H16C17.1046 12 18 12.8954 18 14V16C18 17.1046 17.1046 18 16 18H12V12Z" fill="white"/>
     <circle cx="19" cy="19" r="2" fill="white"/>
  </g>
</svg>
